/* XPM */
static char *result[] = {
/* columns rows colors chars-per-pixel */
"64 64 15 1 ",
"  c #306082",
". c #5B6EE1",
"X c #316B94",
"o c #1F4159",
"O c #D95763",
"+ c #AC3232",
"@ c #247679",
"# c #8A1A1A",
"$ c #1FA1A7",
"% c #1FB2B9",
"& c #25C6CD",
"* c #CBDBFC",
"= c black",
"- c #222034",
"; c white",
/* pixels */
"  .XXXXX .XXXXXXX   ..XXX    .XXXX    .XXXXX   .XXX   .XX    .XX",
" o.XX   o.XXXX     o..XX    o.X      o.X      o.X    o.X    o.X ",
"oo.   ooo.      oooo..    ooo.   ooooo.     ooo.   ooo.   ooo.  ",
"................................................................",
"   .XXXX   ..XXXX    .XXXXX    ..XXXX    .XXX     .XXX    ..XXX ",
"  o.X     o..X      o.XX      o..X      o.X      o.X     o..X   ",
"ooo.   oooo..     ooo.   oooooo..    oooo.   ooooo.    ooo..    ",
"................................................................",
"  .XXXXX .XXXXXXX   ..XXX    .XXXX    .XXXXX   .XXX   .XX    .XX",
" o.XX   o.XXXX     o..XX    o.X      o.X      o.X    o.X    o.X ",
"oo.   ooo.      oooo..    ooo.   ooooo.     ooo.   ooo.   ooo.  ",
"................................................................",
"  .XXXXX .XXXXXXX   ..XXX    .XXXX    .XXXXX   .XXX   .XX    .XX",
" o.XX   o.XXXX     o..XX    o.X      o.X      o.X    o.X    o.X ",
"oo.   ooo.      oooo..    ooo.   ooooo.     ooo.   ooo.   ooo.  ",
"................................................................",
"   .XXXX   ..XXXX    .XXXXX  OO..XXOO    .XXX     .XXX    ..XXX ",
"  o.X     o..X      o.XX      +..X +    o.X      o.X     o..X   ",
"ooo.   oooo..     ooo.   ooooo+..  + oooo.   ooooo.    ooo..    ",
"..............................+....+............................",
"  .XXXXX .XXXXXXX   ..XXX    .+XXX +  .XXXXX@  .XXX   .XX    .XX",
" o.XX   o.XXXX     o..XX    o.#    # o.X   @  o.X    o.X    o.X ",
"oo.   ooo.      oooo..    ooo.## o##oo.     $$$.   ooo.   ooo.  ",
"..............................#+OO+#.........%&.................",
"   .XXXX   ..XXXX    .XXXXX   ++++++X    .X&&&&&  .XXX    ..XXX ",
"  o.X     o..X      o.XX      +O++O+    o.X&***& o.X     o..X   ",
"ooo.   oooo..     ooo.   ooooo+=++=+ oooo. &***&oo.    ooo..    ",
"..............................+=++=+.......=***=................",
"  .XXXXX .XXXXXXX   ..XXX    .++++++  .XXXX$%%%$XXX   .XX    .XX",
" o.XX   o.XXXX     o..XX    o.X++++  o.X      o.X    o.X    o.X ",
"oo.   ooo.      oooo..    ooo.  ##oooo.     ooo.   ooo.   ooo.  ",
"..............................--##--............................",
"   .XXXX   ..XXXX    .XXXXX  -==##==-    .XXX     .XXX    ..XXX ",
"  o.X     o..X      o.XX    -========-  o.X      o.X     o..X   ",
"ooo.   oooo..     ooo.   ooo==========ooo.   ooooo.    ooo..    ",
"............................==========..........................",
"  .XXXXX .XXXXXXX   ..XXX   ==========.XXXXX   .XXX   .XX    .XX",
" o.XX   o.XXXX     o..XX    ==========.X      o.X    o.X    o.X ",
"oo.   ooo.      oooo..    oo==========.     ooo.   ooo.   ooo.  ",
"............................==========..........................",
"   .XXXX   ..XXXX    .XXXXX ==========   .XXX     .XXX    ..XXX ",
"  o.X     o..X      o.XX    ==========  o.X      o.X     o..X   ",
"ooo.   oooo..     ooo.   ooo==========ooo.   ooooo.    ooo..    ",
"...........................-==========-.........................",
"  .XXXXX .XXXXXXX   ..XXX  ============XXXXX   .XXX   .XX    .XX",
" o.XX   o.XXXX     o..XX   ============X      o.X    o.X    o.X ",
"oo.   ooo.      oooo..    -============-    ooo.   ooo.   ooo.  ",
".........................-==============-.......................",
"   .XXXX   ..XXXX    .XXXXX    ..XXXX    .XXX     .XXX    ..XXX ",
"  o.X     o..X      o.XX      o..X      o.X      o.X     o..X   ",
"ooo.   oooo..     ooo.   oooooo..    oooo.   ooooo.    ooo..    ",
"................................................................",
"   .XXXX   ..XXXX    .XXXXX    ..XXXX    .XXX     .XXX    ..XXX ",
"  o.X     o..X      o.XX      o..X      o.X      o.X     o..X   ",
"ooo.   oooo..     ooo.   oooooo..    oooo.   ooooo.    ooo..    ",
"................................................................",
"  .XXXXX .XXXXXXX   ..XXX    .XXXX    .XXXXX   .XXX   .XX    .XX",
" o.XX   o.XXXX     o..XX    o.X      o.X      o.X    o.X    o.X ",
"oo.   ooo.      oooo..    ooo.   ooooo.     ooo.   ooo.   ooo.  ",
"................................................................",
"   .XXXX   ..XXXX    .XXXXX    ..XXXX    .XXX     .XXX    ..XXX ",
"  o.X     o..X      o.XX      o..X      o.X      o.X     o..X   ",
"ooo.   oooo..     ooo.   oooooo..    oooo.   ooooo.    ooo..    ",
"................................................................"
};
