/* XPM */
static char *_701ebc773aa41f4975c7dc0947b2a20oI5FsYHpO0a17DjW[] = {
/* columns rows colors chars-per-pixel */
"64 64 6 1 ",
"  c #3A2734",
". c #45283C",
"X c #663931",
"o c #595652",
"O c #AC3232",
"+ c #EEC39A",
/* pixels */
"                                                                ",
"                                                                ",
"                                                                ",
"                                               .....            ",
"     .........                        oo       ............     ",
"           ...X..                    oooo                .X...  ",
"                ..XX.. ..                                       ",
"                     X....X...X                                 ",
"                          X...........                          ",
"X...                          .........XX..XXX                  ",
"    .X....                       ..........X........            ",
"       ....                           .XX.X...............      ",
"          X...                                                  ",
"              ..X                                               ",
"                ..                                              ",
"                                                                ",
"                                                                ",
"    ......                               .....X...              ",
"     .............                          ......XX...XX..     ",
"               .....XXX..                              ..X....X.",
"                    ........        XXX                         ",
"                         ......+++++XX+                         ",
"                         +X++++++++XX++                         ",
"                         XX+++X+++++++......                    ",
"                          +++++OOOOOO++  .....                  ",
"                           +++OO++++O++                         ",
"                          .+++O+++OOO++                   ....  ",
"                     ......+++O+++OOO++               .......   ",
"          ............     +++OO++++O+X          ...X......     ",
"        ...XX....           ++++O+O+O+X      .......XX...       ",
"      .....                 ++++OOOOO++ ......X......           ",
"                           ++++++++++++                         ",
"                          +++++++++++++                         ",
"                          +X++++++++++                          ",
"                          XX +                                  ",
"            .....                                               ",
"     ............                                  ........     ",
"   ..X.                                        ..X...           ",
"                                       .. ..X...                ",
"                                 X...X....X                     ",
"                          ...........X                          ",
"                   XX...X.........X                         ...X",
"            ........X..........                       ....X.    ",
"         ............X..X.                           ..X.       ",
"                                                  X..X          ",
"    oo                                         X...             ",
"   oooo                                      ...                ",
"                                                                ",
"                                                                ",
"              ...X.....                               ......    ",
"     ...X...X.......                          .............     ",
".X....X..                              ..XXX.....               ",
"                                    ........                    ",
"                             .....X....                         ",
"                         .........                              ",
"                    .........                                   ",
"                   .....                                        ",
"                                                       oo       ",
"                                                      oooo      ",
"                                                                ",
"                                                                ",
"                                                                ",
"                                                                ",
"                                                                "
};
