/* XPM */
static char *_963c664fe5b48449fb1d38936ff69f7g3RTP6Bfsi9oRaJK[] = {
/* columns rows colors chars-per-pixel */
"64 64 11 1 ",
"  c #222034",
". c #3F2135",
"X c #3A2734",
"o c #323C39",
"O c #45283C",
"+ c #663931",
"@ c #59374F",
"# c #595652",
"$ c #AC3232",
"% c #847E87",
"& c #EEC39A",
/* pixels */
"      @  @            @@OOOO                       @@@@OOOOO    ",
"   @@@@OOOO     @@   O OO     @@     @@@OOOOO    @@@OOOOOOOOoo  ",
" @@@@OOOOOO.  @@@@@@@     @@OOOOOO  @OOOOOOOOO  @@OOOOOOOOOOOoo ",
" @@OOOOOOO.. @@@OOO@@@OO@@OOOOOOOO OOOOOOOOOOOO  OOOOOOOOOOOOOo ",
" OOOOOO.Ooo  @OOOOOOOO. OOOOOO..oo    OOOOO..OO.  OOOOOOOO..... ",
"OOOOOO .oo  @@OOOOOO..   OOOOOoo       O   .....   OOO   .. ..  ",
"OO          @OOOOO.oo      ...    @@@@@OOo              ..      ",
"   @@@@@@   OOOO..oo    OOOO     @@@@@OOOoo      @@@   @@OOoo   ",
"  @@@@OOOOo OOO..    OOOOOOOOOO   OOOOOOOoo   @@O O   @OOOOOOoo ",
" @@OOOOOOOo  O... OOOOOOO@@@OOOO  OOOO+++o  @@OOOO  @@OOOOOOOOOo",
" @OOOOOOOoo OO..      OOOOOOOOOOO&&&&&&&&O OOOOooO  OOOOOOOOOOO ",
"OOOOOOOOOO. O    @@@    OOO&&&&&&&%&&&&&&. OOOOoOOO  OOOOOOO..  ",
"OOOOOOOOOO.  O@@@OOOOoo    &&&&&&&&&&&&&. OOOOOOOO  OOOOO....   ",
"OOOOOOOOO..  OOOOOOOoooooO  &&&&&$$$$$$&&OOOOO...          ..   ",
"  OOO......  OOOOOOOOOOOOOO. &&&$$&&&&$&& OOO..   @@@@@OO    @@ ",
" @ OO...... oOOOOOOOOOOOOOO.o&&&$&&&$$$&& ....   @@@OOOOOOO @@OO",
"OO    .     oOOOOOOOOOOOOO..o&&&$&&&$$$&&      @@@OOOOOOOO  @OOO",
"O  OO..O          .........  &&&$$&&&&$&+  oo O@@OOOOOO..  OOOOO",
" OOOOOOOOOOO            .. @@@&&&&$&$&$&+@ o OOOOOOOO...   OOO..",
"OO@@@@OOOOOOO @@@@@        @OO&&&&$$$$$&&@O  OOOOOOO...  OOOO.o ",
"OOO@OOOOO.oo @@@@@OOOOOo  OOO&&&&&&&&&&&&OO  OOOOO..oo    O..oo ",
"OOOOOOOO.oo  @OOOOOOOOoo  OO&&&&&&&&&&&&&oOO   ...oo            ",
" OOOOOO..o   OOOOOOOOOoO  OO&+&&&&&&&&&&OOO.        @@@@@OOO   @",
"  OO...oo   OOOOOOOOOO..    ++ &o  OOO...... @@O  @@@@OOOOOOO  O",
"            OOOOOOO......  @@       OO.      OOO @@@OOOOOOOOOO O",
"  @@@@@@@o      OO..   .O @@@@O  OOO    @@@@O O OOOOOOOO.....   ",
"@@    OOoo @@@@       OO  @OOOOOOOOo   @@OOOOO  OOOOOOOO..o    @",
"OOOOO     @@OO@@OOOOOoOO   OOOOOOOOo  OOOOOOOOO  OOOOOO..o  O@@@",
"OOOOOOOOo OOOOOOOOOOoOO.. OOOOOOOOO.   OOOOOOO.. OOOOO..oo O@@OO",
"OOOOOOOoo OOOOOOOOOOOO.oo OOOOOOOOO..   OOOOO.. OOOOO..o   OOOOO",
"......ooo OOOOOOOOO...oo  OOOOOO....oo   OO...  OO....   OOOOO..",
"                                                                ",
"XXXXXXXXXXXXXXXXXXXXXXXXXXXXXXXXXXXXXXXXXXXXXXXXXXXXXXXXXXXXXXXX",
"XXXXXXXXXXXXXXXXXXXXXXXXXXXXXXXXXXXXXXXXXXXXXXXXXXXXXXXXXXXXXXXX",
"XXXXXXXXXXXXXXXXXXXXXXXXXXXXXXXXXXXXXXXXXXXXXXXXXXXXXXXXXXXXXXXX",
"XXXXXXXXXXXXOOOOOXXXXXXXXXXXXXXXXXXXXXXXXXXXXXXXXXXXXXXXXXXXXXXX",
"XXXXXOOOOOOOOOOOOXXXXXXXXXXXXXXXXXXXXXXXXXXXXXXXXXXOOOOOOOOXXXXX",
"XXXOO+OXXXXXXXXXXXXXXXXXXXXXXXXXXXXXXXXXXXXXXXXOO+OOOXXXXXXXXXXX",
"XXXXXXXXXXXXXXXXXXXXXXXXXXXXXXXXXXXXXXXOOXOO+OOOXXXXXXXXXXXXXXXX",
"XXXXXXXXXXXXXXXXXXXXXXXXXXXXXXXXX+OOO+OOOO+XXXXXXXXXXXXXXXXXXXXX",
"XXXXXXXXXXXXXXXXXXXXXXXXXXOOOOOOOOOOO+XXXXXXXXXXXXXXXXXXXXXXXXXX",
"XXXXXXXXXXXXXXXXXXX++OOO+OOOOOOOOO+XXXXXXXXXXXXXXXXXXXXXXXXXOOO+",
"XXXXXXXXXXXXOOOOOOOO+OOOOOOOOOOXXXXXXXXXXXXXXXXXXXXXXXOOOO+OXXXX",
"XXXXXXOOOOOOOOOOOOOOO+OO+OXXXXXXXXXXXXXXXXXXXXXXXXXXXOO+OXXXXXXX",
"XXXXXXXXXXXXXXXXXXXXXXXXXXXXXXXXXXXXXXXXXXXXXXXXXX+OO+XXXXXXXXXX",
"XXXXXXXXXXXXXXXXXXXXXXXXXXXXXXXXXXXXXXXXXXXXXXX+OOOXXXXXXXXXXXXX",
"XXXXXXXXXXXXXXXXXXXXXXXXXXXXXXXXXXXXXXXXXXXXXOOOXXXXXXXXXXXXXXXX",
"XXXXXXXXXXXXXXXXXXXXXXXXXXXXXXXXXXXXXXXXXXXXXXXXXXXXXXXXXXXXXXXX",
"XXXXXXXXXXXXXXXXXXXXXXXXXXXXXXXXXXXXXXXXXXXXXXXXXXXXXXXXXXXXXXXX",
"XXXXXXXXXXXXXXOOO+OOOOOXXXXXXXXXXXXXXXXXXXXXXXXXXXXXXXOOOOOOXXXX",
"XXXXXOOO+OOO+OOOOOOOXXXXXXXXXXXXXXXXXXXXXXXXXXOOOOOOOOOOOOOXXXXX",
"O+OOOO+OOXXXXXXXXXXXXXXXXXXXXXXXXXXXXXXOO+++OOOOOXXXXXXXXXXXXXXX",
"XXXXXXXXXXXXXXXXXXXXXXXXXXXXXXXXXXXXOOOOOOOOXXXXXXXXXXXXXXXXXXXX",
"XXXXXXXXXXXXXXXXXXXXXXXXXXXXXOOOOO+OOOOXXXXXXXXXXXXXXXXXXXXXXXXX",
"XXXXXXXXXXXXXXXXXXXXXXXXXOOOOOOOOOXXXXXXXXXXXXXXXXXXXXXXXXXXXXXX",
"XXXXXXXXXXXXXXXXXXXXOOOOOOOOOXXXXXXXXXXXXXXXXXXXXXXXXXXXXXXXXXXX",
"XXXXXXXXXXXXXXXXXXXOOOOOXXXXXXXXXXXXXXXXXXXXXXXXXXXXXXXXXXXXXXXX",
"XXXXXXXXXXXXXXXXXXXXXXXXXXXXXXXXXXXXXXXXXXXXXXXXXXXXXXX##XXXXXXX",
"XXXXXXXXXXXXXXXXXXXXXXXXXXXXXXXXXXXXXXXXXXXXXXXXXXXXXX####XXXXXX",
"XXXXXXXXXXXXXXXXXXXXXXXXXXXXXXXXXXXXXXXXXXXXXXXXXXXXXXXXXXXXXXXX",
"XXXXXXXXXXXXXXXXXXXXXXXXXXXXXXXXXXXXXXXXXXXXXXXXXXXXXXXXXXXXXXXX",
"XXXXXXXXXXXXXXXXXXXXXXXXXXXXXXXXXXXXXXXXXXXXXXXXXXXXXXXXXXXXXXXX",
"XXXXXXXXXXXXXXXXXXXXXXXXXXXXXXXXXXXXXXXXXXXXXXXXXXXXXXXXXXXXXXXX",
"XXXXXXXXXXXXXXXXXXXXXXXXXXXXXXXXXXXXXXXXXXXXXXXXXXXXXXXXXXXXXXXX"
};
