/* XPM */
static char *result[] = {
/* columns rows colors chars-per-pixel */
"64 64 15 1 ",
"  c black",
". c #222034",
"X c #1F4159",
"o c #247679",
"O c #8A1A1A",
"+ c #AC3232",
"@ c #D95763",
"# c #306082",
"$ c #316B94",
"% c #5B6EE1",
"& c #1FA1A7",
"* c #1FB2B9",
"= c #25C6CD",
"- c #CBDBFC",
"; c None",
/* pixels */
"##%$$$$$#%$$$$$$$###%%$$$####%;;;;;;;;;;;;;;;;;;;;;;;;;;;;;;;;;;",
"#X%$$###X%$$$$#####X%%$$####X%$######X%$######X%$####X%$####X%$#",
"XX%###XXX%######XXXX%%####XXX%###XXXXX%#####XXX%###XXX%###XXX%##",
"%%%%%%%%%%%%%%%%%%%%%%%%%%%%%%%%%%%%%%%%%%%%%%%%%%%%%%%%%%%%%%%%",
"###%$$$$###%%$$$$####%$$$$$####%%$$$$####%$$$#####%$$$####%%$$$#",
"##X%$#####X%%$######X%$$######X%%$######X%$######X%$#####X%%$###",
"XXX%###XXXX%%#####XXX%###XXXXXX%%####XXXX%###XXXXX%####XXX%%####",
"%%%%%%%%%%%%%%%%%%%%%%%%%%%%%%%%%%%%%%%%%%%%%%%%%%%%%%%%%%%%%%%%",
"##%$$$$$#%$$$$$$$###%%$$$####%$$$$####%$$$$$###%$$$###%$$####%$$",
"#X%$$###X%$$$$#####X%%$$####X%$######X%$######X%$####X%$####X%$#",
"XX%###XXX%######XXXX%%####XXX%###XXXXX%#####XXX%###XXX%###XXX%##",
"%%%%%%%%%%%%%%%%%%%%%%%%%%%%%%%%%%%%%%%%%%%%%%%%%%%%%%%%%%%%%%%%",
"##%$$$$$#%$$$$$$$###%%$$$####%$$$$####%$$$$$###%$$$###%$$####%$$",
"#X%$$###X%$$$$#####X%%$$####X%$######X%$######X%$####X%$####X%$#",
"XX%###XXX%######XXXX%%####XXX%###XXXXX%#####XXX%###XXX%###XXX%##",
"%%%%%%%%%%%%%%%%%%%%%%%%%%%%@@%%%%@@%%%%%%%%%%%%%%%%%%%%%%%%%%%%",
"###%$$$$###%%$$$$####%$$$$$##+#%%$$+$####%$$$#####%$$$####%%$$$#",
"##X%$#####X%%$######X%$$#####++%%$#++###X%$######X%$#####X%%$###",
"XXX%###XXXX%%#####XXX%###XXXX++%%##++XXXX%###XXXXX%####XXX%%####",
"%%%%%%%%%%%%%%%%%%%%%%%%%%%%%%+%%%%%+%%%%%%%%%%%%%%%%%%%%%%%%%%%",
"##%$$$$$#%$$$$$$$###%%$$$####%++$$##++%$$$$$#o#%$$$###%$$####%$$",
"#X%$$###X%$$$$#####X%%$$####X%+O####+O%$####o#X%$####X%$####X%$#",
"XX%###XXX%######XXXX%%####XXX%+O+@@@+O%#####X&&%##&XXX%###XXX%##",
"%%%%%%%%%%%%%%%%%%%%%%%%%%%%%%%+++++++%%%%%%%%*=%%%=%%%%%%%%%%%%",
"###%$$$$###%%$$$$####%$$$$$####++@++@+###%$$$##=====$$####%%$$$#",
"##X%$#####X%%$######X%$$######X++ ++ +##X%$####=---=#####X%%$###",
"XXX%###XXXX%%#####XXX%###XXXXXX++ ++ +XXX%###XX=---=###XXX%%####",
"%%%%%%%%%%%%%%%%%%%%%%%%%%%%%%%+++++++%%%%%%%%%* -- %%%%%%%%%%%%",
"##%$$$$$#%$$$$$$$###%%$$$####%$$+++++#%$$$$$###&****##%$$####%$$",
"#X%$$###X%$$$$#####X%%$$####X%$##OO##X%$######X%$####X%$####X%$#",
"XX%###XXX%######XXXX%%####XXX%.. OO..X%#####XXX%###XXX%###XXX%##",
"%%%%%%%%%%%%%%%%%%%%%%%%%%%%%.  @OO  .%%%%%%%%%%%%%%%%%%%%%%%%%%",
"###%$$$$###%%$$$$####%$$$$$#.    O    .##%$$$#####%$$$####%%$$$#",
"##X%$#####X%%$######X%$$####           #X%$######X%$#####X%%$###",
"XXX%###XXXX%%#####XXX%###XXX           XX%###XXXXX%####XXX%%####",
"%%%%%%%%%%%%%%%%%%%%%%%%%%%%           %%%%%%%%%%%%%%%%%%%%%%%%%",
"##%$$$$$#%$$$$$$$###%%$$$###           $$$$$###%$$$###%$$####%$$",
"#X%$$###X%$$$$#####X%%$$####           $######X%$####X%$####X%$#",
"XX%###XXX%######XXXX%%####XX           #####XXX%###XXX%###XXX%##",
"%%%%%%%%%%%%%%%%%%%%%%%%%%%%           %%%%%%%%%%%%%%%%%%%%%%%%%",
"###%$$$$###%%$$$$####%$$$$$#           ##%$$$#####%$$$####%%$$$#",
"##X%$#####X%%$######X%$$####           #X%$######X%$#####X%%$###",
"XXX%###XXXX%%#####XXX%###XXX           XX%###XXXXX%####XXX%%####",
"%%%%%%%%%%%%%%%%%%%%%%%%%%%.           .%%%%%%%%%%%%%%%%%%%%%%%%",
"##%$$$$$#%$$$$$$$###%%$$$##             $$$$###%$$$###%$$####%$$",
"#X%$$###X%$$$$#####X%%$$###             ######X%$####X%$####X%$#",
"XX%###XXX%######XXXX%%####.             .###XXX%###XXX%###XXX%##",
"%%%%%%%%%%%%%%%%%%%%%%%%%                .%%%%%%%%%%%%%%%%%%%%%%",
"###%$$$$###%%$$$$####%$$$$$####%%$$$$####%$$$#####%$$$####%%$$$#",
"##X%$#####X%%$######X%$$######X%%$######X%$######X%$#####X%%$###",
"XXX%###XXXX%%#####XXX%###XXXXXX%%####XXXX%###XXXXX%####XXX%%####",
"%%%%%%%%%%%%%%%%%%%%%%%%%%%%%%%%%%%%%%%%%%%%%%%%%%%%%%%%%%%%%%%%",
"###%$$$$###%%$$$$####%$$$$$####%%$$$$####%$$$#####%$$$####%%$$$#",
"##X%$#####X%%$######X%$$######X%%$######X%$######X%$#####X%%$###",
"XXX%###XXXX%%#####XXX%###XXXXXX%%####XXXX%###XXXXX%####XXX%%####",
"%%%%%%%%%%%%%%%%%%%%%%%%%%%%%%%%%%%%%%%%%%%%%%%%%%%%%%%%%%%%%%%%",
"##%$$$$$#%$$$$$$$###%%$$$####%$$$$####%$$$$$###%$$$###%$$####%$$",
"#X%$$###X%$$$$#####X%%$$####X%$######X%$######X%$####X%$####X%$#",
"XX%###XXX%######XXXX%%####XXX%###XXXXX%#####XXX%###XXX%###XXX%##",
"%%%%%%%%%%%%%%%%%%%%%%%%%%%%%%%%%%%%%%%%%%%%%%%%%%%%%%%%%%%%%%%%",
"###%$$$$###%%$$$$####%$$$$$####%%$$$$####%$$$#####%$$$####%%$$$#",
"##X%$#####X%%$######X%$$######X%%$######X%$######X%$#####X%%$###",
"XXX%###XXXX%%#####XXX%###XXXXXX%%####XXXX%###XXXXX%####XXX%%####",
"%%%%%%%%%%%%%%%%%%%%%%%%%%%%%%%%%%%%%%%%%%%%%%%%%%%%%%%%%%%%%%%%"
};
