/* XPM */
static char *_bf670ad7e7e4573859d02d06d059c21q9s3y23dIYx8yvSc[] = {
/* columns rows colors chars-per-pixel */
"64 64 12 1 ",
"  c black",
". c #131128",
"X c #222034",
"o c #3A2734",
"O c #45283C",
"+ c #663931",
"@ c #2C2A43",
"# c #3F3C59",
"$ c #595652",
"% c #514E6B",
"& c #AC3232",
"* c #B75919",
/* pixels */
"oooooooooooooooooooooooooo.oooooooo.oooooooooooooooooooooooooooo",
"oooooooooooooooooooooooooo.oooooooo.oooooooooooooooooooooooooooo",
"ooooooooooooooooooooooooo..oooooooo..ooooooooooooooooooooooooooo",
"ooooooooooooooooooooooooo..oooooooo..ooooooooooOOOOOoooooooooooo",
"oooooOOOOOOOOOoooooooooo...oooooooo...$$oooooooOOOOOOOOOOOOooooo",
"oooooooooooOOO+OOooooooo....oooooo....$$$ooooooooooooooooO+OOOoo",
"ooooooooooooooooOO++OOoO....oooooo....oooooooooooooooooooooooooo",
"ooooooooooooooooooooo+OO...............oooo.oooooooooooooooooooo",
"oooooooooooooooooo.oooo................oooo..ooooooooooooooooooo",
"+OOOooooooooooooo..oooo......%%%%%......+OO...oooooooooooooooooo",
"ooooO+OOOOoooooo...ooo....%%%%####%%%....OO....OOOOOoooooooooooo",
"oooooooOOOOoooo....ooo....%%########%%....+.....OOOOOOOOOOoooooo",
"oooooooooo+OOO.....oo...%%############...........ooooooooooooooo",
"ooooooooooooo...........##############...........ooooooooooooooo",
"ooooooooooooo...........##############....#.###...oooooooooooooo",
"oooooooooooo...###.#....###XXX###XXX##....######...ooooooooooooo",
"ooooooooooo...######....###X&X###X&X##...########..ooooooooooooo",
"ooooOOOOOOo..%######@...###XXX###XXX##...#########..oooooooooooo",
"oooooOOOOO..%#######@...####X#####X##....###%%%####.OOO++OOooooo",
"oooooooooo.%###%%%##@....#############..@##XXX%####..ooOO+OOOO+O",
"ooooooooo..%###%XXX##@..###XXX###XXX#..@@##X&X#####%..oooooooooo",
"oooooooo..%#####X&X##@@..##X&X###X&X#..@###XXX##%%%#%.oooooooooo",
"oooooooo.%#%%%##XXX###@..##XXX###XXX#..@#..##X#XXX%#%..ooooooooo",
"ooooooo..%#%XXX#X##..#@..###X#####X##.@##...###X&X###%.ooooooooo",
"ooooooo.%###X&X###...##@..###########.@##....##XXX####%.oooooooo",
"oooooo.#####XXX##....##@..##########..@@#..*..###X####%.oooooooo",
"oooooo.#####X###..*..##@@..#########..@@@@..*..#######%.ooOOOOoo",
"oooooo.########..*..@#@@...@#######@. X@@@@..*..#######%.OOOOooo",
"ooooo.########..*..@@@@X  ..@#####@..  XXX@@..*...######.OOooooo",
"ooooo.######...*..@@XXX   ..@##%##@..     X@@..**..@@###.ooooooo",
"ooooo.@##@@..**..@@X       ..@%%%@..       ..@..**...@@@.ooooooo",
"ooooo.@@@...**..@..         .@%%%@.         X....****....ooooooo",
"ooooo....****....o          ..@@@..         oooo.......ooooooooo",
"oooooo.*****...ooo           .....          oooooooooooooooooooo",
"oooooo.......ooooo                          oooooooooooooooooooo",
"ooooooooooooOOOOO                            ooooooooooooooooooo",
"oooooOOOOOOOOOOOO                            ooooooOOOOOOOOooooo",
"oooOO+Ooooooooooo                            ooOO+OOOooooooooooo",
"oooooooooooooooo                              OOoooooooooooooooo",
"oooooooooooooooo                              oooooooooooooooooo",
"oooooooooooooooo                              oooooooooooooooooo",
"ooooooooooooooo                                oooooooooooooOOO+",
"ooooooooooooOOO                                oooooooOOOO+Ooooo",
"oooooooooOOOOO                                  oooooOO+Oooooooo",
"oooooooooooooo                                  oo+OO+oooooooooo",
"oooo$$oooooooo                                  OOOooooooooooooo",
"ooo$$$$oooooo                                    ooooooooooooooo",
"ooooooooooooo                                    ooooooooooooooo",
"ooooooooooooo                                    ooooooooooooooo",
"ooooooooooooo                                    oooooOOOOOOoooo",
"oooooOOO+OOO                                      OOOOOOOOOooooo",
"O+OOOO+OOooo                                      oooooooooooooo",
"oooooooooooo                                      oooooooooooooo",
"oooooooooooo                                      oooooooooooooo",
"oooooooooooo                                      oooooooooooooo",
"oooooooooooo                                      oooooooooooooo",
"ooooooooooo                                       oooooooooooooo",
"ooooooooooo                                        oooo$$ooooooo",
"oooooooooo                                         ooo$$$$oooooo",
"oooooooo                                             ooooooooooo",
"oooooo                                                 ooooooooo",
"oooooooooooooooooooooooooooooooooooooooooooooooooooooooooooooooo",
"oooooooooooooooooooooooooooooooooooooooooooooooooooooooooooooooo",
"oooooooooooooooooooooooooooooooooooooooooooooooooooooooooooooooo"
};
