/* XPM */
static char *result[] = {
/* columns rows colors chars-per-pixel */
"64 64 18 1 ",
"  c black",
". c #222034",
"X c #3F2135",
"o c #3A2734",
"O c #323C39",
"+ c #45283C",
"@ c #663931",
"# c #59374F",
"$ c #247679",
"% c #595652",
"& c #8A1A1A",
"* c #AC3232",
"= c #D95763",
"- c #1FA1A7",
"; c #1FB2B9",
": c #25C6CD",
"> c #D6FEFF",
", c None",
/* pixels */
",......#..#............##++++.......................####+++++...",
",...####++++.....##...+.++.....##.....###+++++....###++++++++OO.",
",.####++++++X..#######.....##++++++..#+++++++++..##+++++++++++OO",
",.##+++++++XX.###+++###++##++++++++.++++++++++++..+++++++++++++O",
",.++++++X+OO..#++++++++X.++++++XXOO....+++++XX++X..++++++++XXXXX",
",++++++.XOO..##++++++XX...+++++OO.......+...XXXXX...+++...XX.XX.",
",++..........#+++++XOO......XXX....#####++O..............XX.....",
",...######...++++XXOO....++++.....#####+++OO......###...##++OO..",
",..####++++O.+++XX....++++++++++...+++++++OO...##+.+...#++++++OO",
",.##+++++++O..+XXX.+++++++###++++..+++++++O..##++++..##+++++++++",
",.#+++++++OO.++XX......+++++++++++..+++++++.++++OO+..+++++++++++",
",++++++++++X.+....###....++++++++++X.++++XX.++++O+++..+++++++XX.",
",++++++++++X..+###++++OO....+++++++XX++XXX.++++++++..+++++XXXX..",
",+++++++++XX..+++++++OOOOO+...XXXXXXX.XXX.+++++XXX..........XX..",
",..+++XXXXXX..++++++++++++++X...XOOX.......+++XX...#####++....##",
",.#.++XXXXXX.O++++++++++++++XOOO.......##+.XXXX...###+++++++.##+",
",++....X.....O+++++++++++++X==....==..#+++......###++++++++..#++",
",+..++XX+..........XXXXXXXXX.*####*++.......OO.+##++++++XX..++++",
",.+++++++++++............XX.#*#+++*+.....+#.O.++++++++XXX...+++X",
",++####+++++++.#####........#*++++*X..+####+.$+++++++XXX..++++XO",
",+++#+++++XOO.#####+++++O..++*++++*..+##+++$..+++++XXOO....+XXOO",
",++++++++XOO..#++++++++OO..++&+++X&..++++OO+-.-.XXXOO...........",
",.++++++XXO...+++++++++O+..++&&XX&&..+++++++;:.......#####+++...",
",..++XXXOO...++++++++++XX....&*==*&.+++XXXX:::::+..####+++++++..",
",............+++++++XXXXXX..#******..++X...:>>>:+.###++++++++++.",
",..#######O......++XX...X+.##******++....##:>>>:.++++++++XXXXX..",
",##....++OO.####.......++..#+******+O...##+;>>>;.++++++++XXO....",
",+++++.....##++##+++++O++...+******+O..++++-;;;-..++++++XXO..+##",
",++++++++O.++++++++++O++XX.++******+X...+++++++XX.+++++XXOO.+##+",
",+++++++OO.++++++++++++XOO.+++*&&*++XX...+++++XX.+++++XXO...++++",
",XXXXXXOOO.+++++++++XXXOO..++......XXOO...++XXX..++XXXX...+++++X",
",............................      .............................",
",oooooooooooooooooooooooooo.        .ooooooooooooooooooooooooooo",
",oooooooooooooooooooooooooo          ooooooooooooooooooooooooooo",
",oooooooooooooooooooooooooo          ooooooooooooooooooooooooooo",
",oooooooooooo+++++ooooooooo          ooooooooooooooooooooooooooo",
",ooooo++++++++++++ooooooooo          ooooooooooooooo++++++++oooo",
",ooo++@+ooooooooooooooooooo          ooooooooooo++@+++oooooooooo",
",oooooooooooooooooooooooooo          ooo++o++@+++ooooooooooooooo",
",oooooooooooooooooooooooooo          +@++++@oooooooooooooooooooo",
",oooooooooooooooooooooooooo          +@ooooooooooooooooooooooooo",
",ooooooooooooooooooo@@+++@+          oooooooooooooooooooooooo+++",
",oooooooooooo++++++++@++++.          .ooooooooooooooooo++++@+ooo",
",oooooo+++++++++++++++@++@            oooooooooooooooo++@+oooooo",
",ooooooooooooooooooooooooo            ooooooooooooo@++@ooooooooo",
",oooooooooooooooooooooooo.            .ooooooooo@+++oooooooooooo",
",oooooooooooooooooooooooo              ooooooo+++ooooooooooooooo",
",ooooooooooooooooooooooo.              .oooooooooooooooooooooooo",
",ooooooooooooooooooooooooooooooooooooooooooooooooooooooooooooooo",
",oooooooooooooo+++@+++++ooooooooooooooooooooooooooooooo++++++ooo",
",ooooo+++@+++@+++++++oooooooooooooooooooooooooo+++++++++++++oooo",
",+@++++@++oooooooooooooooooooooooooooooo++@@@+++++oooooooooooooo",
",oooooooooooooooooooooooooooooooooooo++++++++ooooooooooooooooooo",
",ooooooooooooooooooooooooooooo+++++@++++oooooooooooooooooooooooo",
",ooooooooooooooooooooooooo+++++++++ooooooooooooooooooooooooooooo",
",oooooooooooooooooooo+++++++++oooooooooooooooooooooooooooooooooo",
",ooooooooooooooooooo+++++ooooooooooooooooooooooooooooooooooooooo",
",ooooooooooooooooooooooooooooooooooooooooooooooooooooooo%%oooooo",
",oooooooooooooooooooooooooooooooooooooooooooooooooooooo%%%%ooooo",
",ooooooooooooooooooooooooooooooooooooooooooooooooooooooooooooooo",
",ooooooooooooooooooooooooooooooooooooooooooooooooooooooooooooooo",
",ooooooooooooooooooooooooooooooooooooooooooooooooooooooooooooooo",
",ooooooooooooooooooooooooooooooooooooooooooooooooooooooooooooooo",
",ooooooooooooooooooooooooooooooooooooooooooooooooooooooooooooooo"
};
