/* XPM */
static char *result[] = {
/* columns rows colors chars-per-pixel */
"64 64 18 1 ",
"  c #222034",
". c #59374F",
"X c #45283C",
"o c #323C39",
"O c #3F2135",
"+ c #D95763",
"@ c #AC3232",
"# c #247679",
"$ c #8A1A1A",
"% c #1FA1A7",
"& c #1FB2B9",
"* c #25C6CD",
"= c #D6FEFF",
"- c black",
"; c #3A2734",
": c #663931",
"> c #595652",
", c white",
/* pixels */
"      .  .            ..XXXX                       ....XXXXX    ",
"   ....XXXX     ..   X XX     ..     ...XXXXX    ...XXXXXXXXoo  ",
" ....XXXXXXO  .......     ..XXXXXX  .XXXXXXXXX  ..XXXXXXXXXXXoo ",
" ..XXXXXXXOO ...XXX...XX..XXXXXXXX XXXXXXXXXXXX  XXXXXXXXXXXXXo ",
" XXXXXXOXoo  .XXXXXXXXO XXXXXXOOoo    XXXXXOOXXO  XXXXXXXXOOOOO ",
"XXXXXX Ooo  ..XXXXXXOO   XXXXXoo       X   OOOOO   XXX   OO OO  ",
"XX          .XXXXXOoo      OOO    .....XXo              OO      ",
"   ......   XXXXOOoo    XXXX     .....XXXoo      ...   ..XXoo   ",
"  ....XXXXo XXXOO    XXXXXXXXXX   XXXXXXXoo   ..X X   .XXXXXXoo ",
" ..XXXXXXXo  XOOO XXXXXXX...XXXX  XXXXXXXo  ..XXXX  ..XXXXXXXXXo",
" .XXXXXXXoo XXOO      XXXXXXXXXXX  XXXXXXX XXXXooX  XXXXXXXXXXX ",
"XXXXXXXXXXO X    ...    XXXXXXXXXXO XXXXOO XXXXoXXX  XXXXXXXOO  ",
"XXXXXXXXXXO  X...XXXXoo    XXXXXXXOOXXOOO XXXXXXXX  XXXXXOOOO   ",
"XXXXXXXXXOO  XXXXXXXoooooX   OOOOOOO OOO XXXXXOOO          OO   ",
"  XXXOOOOOO  XXXXXXXXXXXXXXO   OooO       XXXOO   .....XX    .. ",
" . XXOOOOOO oXXXXXXXXXXXXXXOooo       ..X OOOO   ...XXXXXXX ..XX",
"XX    O     oXXXXXXXXXXXXXOOo        .XXX      ...XXXXXXXX  .XXX",
"X  XXOOX          OOOOOOOOO  ++..XX++      oo X..XXXXXXOO  XXXXX",
" XXXXXXXXXXX            OO ...@XXXX@    X. o XXXXXXXXOOO   XXXOO",
"XX....XXXXXXX .....        .XX@XXOO@ X....X  XXXXXXXOOO  XXXXOo ",
"XXX.XXXXXOoo .....XXXXXo  XXXX@XXO @X..XXXX  XXXXXOOoo    XOOoo ",
"XXXXXXXXOoo  .XXXXXXXXoo  XXXX@XO  @XXXXooXX # OOOoo            ",
" XXXXXXOOo   XXXXXXXXXoX  XXXO$Oo  $XXXXXXXO  %     .....XXX   .",
"  XXOOOoo   XXXXXXXXXXOO      $$o $$XXOOOOOO &&X% ....XXXXXXX  X",
"            XXXXXXXOOOOOO  .. $@++@$XXO    ***** ...XXXXXXXXXX X",
"  .......o      XXOO   OX ....@@@@@@    ...*===*XXXXXXXXOOOOO   ",
"..    XXoo ....       XX  .XXX@+@@+@   ..XX*===*XXXXXXXXOOo    .",
"XXXXX     ..XX..XXXXXoXX   XXX@-@@-@  XXXXX-===- XXXXXXOOo  X...",
"XXXXXXXXo XXXXXXXXXXoXXOO XXXX@-@@-@   XXXX%&&&% XXXXXOOoo X..XX",
"XXXXXXXoo XXXXXXXXXXXXOoo XXXX@@@@@@O   XXXXXOO XXXXXOOo   XXXXX",
"OOOOOOooo XXXXXXXXXOOOoo  XXXXX@@@@Ooo   XXOOO  XXOOOO   XXXXXOO",
"                                $$                              ",
";;;;;;;;;;;;;;;;;;;;;;;;;;;;;;  $$  ;;;;;;;;;;;;;;;;;;;;;;;;;;;;",
";;;;;;;;;;;;;;;;;;;;;;;;;;;;; --$$-- ;;;;;;;;;;;;;;;;;;;;;;;;;;;",
";;;;;;;;;;;;;;;;;;;;;;;;;;;; -------- ;;;;;;;;;;;;;;;;;;;;;;;;;;",
";;;;;;;;;;;;XXXXX;;;;;;;;;;;----------;;;;;;;;;;;;;;;;;;;;;;;;;;",
";;;;;XXXXXXXXXXXX;;;;;;;;;;;----------;;;;;;;;;;;;;XXXXXXXX;;;;;",
";;;XX:X;;;;;;;;;;;;;;;;;;;;;----------;;;;;;;;;XX:XXX;;;;;;;;;;;",
";;;;;;;;;;;;;;;;;;;;;;;;;;;;----------;XX;XX:XXX;;;;;;;;;;;;;;;;",
";;;;;;;;;;;;;;;;;;;;;;;;;;;;----------XXXX:;;;;;;;;;;;;;;;;;;;;;",
";;;;;;;;;;;;;;;;;;;;;;;;;;XX----------;;;;;;;;;;;;;;;;;;;;;;;;;;",
";;;;;;;;;;;;;;;;;;;::XXX:XXX----------;;;;;;;;;;;;;;;;;;;;;;XXX:",
";;;;;;;;;;;;XXXXXXXX:XXXXXXX----------;;;;;;;;;;;;;;;;XXXX:X;;;;",
";;;;;;XXXXXXXXXXXXXXX:XX:X;;----------;;;;;;;;;;;;;;;XX:X;;;;;;;",
";;;;;;;;;;;;;;;;;;;;;;;;;;;;----------;;;;;;;;;;;;:XX:;;;;;;;;;;",
";;;;;;;;;;;;;;;;;;;;;;;;;;;;----------;;;;;;;;;:XXX;;;;;;;;;;;;;",
";;;;;;;;;;;;;;;;;;;;;;;;;;; ---------- ;;;;;;XXX;;;;;;;;;;;;;;;;",
";;;;;;;;;;;;;;;;;;;;;;;;;  ------------  ;;;;;;;;;;;;;;;;;;;;;;;",
";;;;;;;;;;;;;;;;;;;;;;;;;;;;;;;;;;;;;;;;;;;;;;;;;;;;;;;;;;;;;;;;",
";;;;;;;;;;;;;;XXX:XXXXX;;;;;;;;;;;;;;;;;;;;;;;;;;;;;;;XXXXXX;;;;",
";;;;;XXX:XXX:XXXXXXX;;;;;;;;;;;;;;;;;;;;;;;;;;XXXXXXXXXXXXX;;;;;",
"X:XXXX:XX;;;;;;;;;;;;;;;;;;;;;;;;;;;;;;XX:::XXXXX;;;;;;;;;;;;;;;",
";;;;;;;;;;;;;;;;;;;;;;;;;;;;;;;;;;;;XXXXXXXX;;;;;;;;;;;;;;;;;;;;",
";;;;;;;;;;;;;;;;;;;;;;;;;;;;;XXXXX:XXXX;;;;;;;;;;;;;;;;;;;;;;;;;",
";;;;;;;;;;;;;;;;;;;;;;;;;XXXXXXXXX;;;;;;;;;;;;;;;;;;;;;;;;;;;;;;",
";;;;;;;;;;;;;;;;;;;;XXXXXXXXX;;;;;;;;;;;;;;;;;;;;;;;;;;;;;;;;;;;",
";;;;;;;;;;;;;;;;;;;XXXXX;;;;;;;;;;;;;;;;;;;;;;;;;;;;;;;;;;;;;;;;",
";;;;;;;;;;;;;;;;;;;;;;;;;;;;;;;;;;;;;;;;;;;;;;;;;;;;;;;>>;;;;;;;",
";;;;;;;;;;;;;;;;;;;;;;;;;;;;;;;;;;;;;;;;;;;;;;;;;;;;;;>>>>;;;;;;",
";;;;;;;;;;;;;;;;;;;;;;;;;;;;;;;;;;;;;;;;;;;;;;;;;;;;;;;;;;;;;;;;",
";;;;;;;;;;;;;;;;;;;;;;;;;;;;;;;;;;;;;;;;;;;;;;;;;;;;;;;;;;;;;;;;",
";;;;;;;;;;;;;;;;;;;;;;;;;;;;;;;;;;;;;;;;;;;;;;;;;;;;;;;;;;;;;;;;",
";;;;;;;;;;;;;;;;;;;;;;;;;;;;;;;;;;;;;;;;;;;;;;;;;;;;;;;;;;;;;;;;",
";;;;;;;;;;;;;;;;;;;;;;;;;;;;;;;;;;;;;;;;;;;;;;;;;;;;;;;;;;;;;;;;"
};
