/* XPM */
static char *dd99c17a4e234be7a3c0dc1c279069a8AAm3M8Rxe8AfSSQQ[] = {
/* columns rows colors chars-per-pixel */
"64 64 15 1 ",
"  c black",
". c #131128",
"X c #222034",
"o c #3F2135",
"O c #3A2734",
"+ c #323C39",
"@ c #45283C",
"# c #663931",
"$ c #2C2A43",
"% c #3F3C59",
"& c #59374F",
"* c #595652",
"= c #514E6B",
"- c #AC3232",
"; c #B75919",
/* pixels */
"XXXXXX&XX&XXXXXXXXXXXX&&@@.@XXXXXXX.XXXXXXXXXXXXXXX&&&&@@@@@XXXX",
"XXX&&&&@@@@XXXXX&&XXX@X@@X.XXX&&XXX.X&&&@@@@@XXXX&&&@@@@@@@@++XX",
"X&&&&@@@@@@oXX&&&&&&&XXXX..&@@@@@@X..@@@@@@@@@XX&&@@@@@@@@@@@++X",
"X&&@@@@@@@ooX&&&@@@&&&@@&..@@@@@@@X..@@@@@@@@@@XX@@@@@@@@@@@@@+X",
"X@@@@@@o@++XX&@@@@@@@@oX...@@@oo++X...@@@@@oo@@oXX@@@@@@@@oooooX",
"@@@@@@Xo++XX&&@@@@@@ooXX....@@++XX....X@XXXoooooXXX@@@XXXooXooXX",
"@@XXXXXXXXXX&@@@@@o++XXX....ooXXXX....&@@+XXXXXXXXXXXXXXooXXXXXX",
"XXX&&&&&&XXX@@@@oo++XXXX...............@@++.XXXXX&&&XXX&&@@++XXX",
"XX&&&&@@@@+X@@@ooX.XX@@................@@++..X&&@X@XXX&@@@@@@++X",
"X&&@@@@@@@+XX@ooo..@@@@......=====......@+X...@@@@XX&&@@@@@@@@@+",
"X&@@@@@@@++X@@oo...XXX....====%%%%===....@X....++@XX@@@@@@@@@@@X",
"@@@@@@@@@@oX@XX....&XX....==%%%%%%%%==....X.....@@@XX@@@@@@@ooXX",
"@@@@@@@@@@oXX@.....@@...==%%%%%%%%%%%%...........@XX@@@@@ooooXXX",
"@@@@@@@@@ooXX...........%%%%%%%%%%%%%%...........XXXXXXXXXXooXXX",
"XX@@@ooooooXX...........%%%%%%%%%%%%%%....%.%%%...&&&&&@@XXXX&&X",
"X&X@@ooooooX...%%%.%....%%%XXX%%%XXX%%....%%%%%%...&@@@@@@@X&&@@",
"@@XXXXoXXXX...%%%%%%....%%%X-X%%%X-X%%...%%%%%%%%..@@@@@@@XX&@@@",
"@XX@@oo@XXX..=%%%%%%$...%%%XXX%%%XXX%%...%%%%%%%%%..@@@ooXX@@@@@",
"X@@@@@@@@@..=%%%%%%%$...%%%%X%%%%%X%%....%%%===%%%%.@oooXXX@@@oo",
"@@&&&&@@@@.=%%%===%%$....%%%%%%%%%%%%%..$%%XXX=%%%%..ooXX@@@@o+X",
"@@@&@@@@@..=%%%=XXX%%$..%%%XXX%%%XXX%..$$%%X-X%%%%%=..XXXX@oo++X",
"@@@@@@@@..=%%%%%X-X%%$$..%%X-X%%%X-X%..$%%%XXX%%===%=.XXXXXXXXXX",
"X@@@@@@o.=%===%%XXX%%%$..%%XXX%%%XXX%..$%..%%X%XXX=%=..&&@@@XXX&",
"XX@@ooo..=%=XXX%X%%..%$..%%%X%%%%%X%%.$%%...%%%X-X%%%=.@@@@@@XX@",
"XXXXXXX.=%%%X-X%%%...%%$..%%%%%%%%%%%.$%%....%%XXX%%%%=.@@@@@@X@",
"XX&&&&.%%%%%XXX%%....%%$..%%%%%%%%%%..$$%..;..%%%X%%%%=.oooooXXX",
"&&XXXX.%%%%%X%%%..;..%%$$..%%%%%%%%%..$$$$..;..%%%%%%%=.oo+XXXX&",
"@@@@@X.%%%%%%%%..;..$%$$...$%%%%%%%$. X$$$$..;..%%%%%%%=.+XX@&&&",
"@@@@@.%%%%%%%%..;..$$$$X  ..$%%%%%$..  XXX$$..;...%%%%%%.+X@&&@@",
"@@@@@.%%%%%%...;..$$XXX   ..$%%=%%$..     X$$..;;..$$%%%.XX@@@@@",
"ooooo.$%%$$..;;..$$X       ..$===$..       ..$..;;...$$$.@@@@@oo",
"XXXXX.$$$...;;..$..         .$===$.         X....;;;;....XXXXXXX",
"OOOOO....;;;;....O          ..$$$..         OOOO.......OOOOOOOOO",
"OOOOOO.;;;;;...OOO           .....          OOOOOOOOOOOOOOOOOOOO",
"OOOOOO.......OOOOO                          OOOOOOOOOOOOOOOOOOOO",
"OOOOOOOOOOOO@@@@@                            OOOOOOOOOOOOOOOOOOO",
"OOOOO@@@@@@@@@@@@                            OOOOOO@@@@@@@@OOOOO",
"OOO@@#@OOOOOOOOOO                            OO@@#@@@OOOOOOOOOOO",
"OOOOOOOOOOOOOOOO                              @@OOOOOOOOOOOOOOOO",
"OOOOOOOOOOOOOOOO                              OOOOOOOOOOOOOOOOOO",
"OOOOOOOOOOOOOOOO                              OOOOOOOOOOOOOOOOOO",
"OOOOOOOOOOOOOOO                                OOOOOOOOOOOOO@@@#",
"OOOOOOOOOOOO@@@                                OOOOOOO@@@@#@OOOO",
"OOOOOO@@@@@@@@                                  OOOOO@@#@OOOOOOO",
"OOOOOOOOOOOOOO                                  OO#@@#OOOOOOOOOO",
"OOOOOOOOOOOOOO                                  @@@OOOOOOOOOOOOO",
"OOOOOOOOOOOOO                                    OOOOOOOOOOOOOOO",
"OOOOOOOOOOOOO                                    OOOOOOOOOOOOOOO",
"OOOOOOOOOOOOO                                    OOOOOOOOOOOOOOO",
"OOOOOOOOOOOOO                                    OOOOO@@@@@@OOOO",
"OOOOO@@@#@@@                                      @@@@@@@@@OOOOO",
"@#@@@@#@@OOO                                      OOOOOOOOOOOOOO",
"OOOOOOOOOOOO                                      OOOOOOOOOOOOOO",
"OOOOOOOOOOOO                                      OOOOOOOOOOOOOO",
"OOOOOOOOOOOO                                      OOOOOOOOOOOOOO",
"OOOOOOOOOOOO                                      OOOOOOOOOOOOOO",
"OOOOOOOOOOO                                       OOOOOOOOOOOOOO",
"OOOOOOOOOOO                                        OOOO**OOOOOOO",
"OOOOOOOOOO                                         OOO****OOOOOO",
"OOOOOOOO                                             OOOOOOOOOOO",
"OOOOOO                                                 OOOOOOOOO",
"OOOOOOOOOOOOOOOOOOOOOOOOOOOOOOOOOOOOOOOOOOOOOOOOOOOOOOOOOOOOOOOO",
"OOOOOOOOOOOOOOOOOOOOOOOOOOOOOOOOOOOOOOOOOOOOOOOOOOOOOOOOOOOOOOOO",
"OOOOOOOOOOOOOOOOOOOOOOOOOOOOOOOOOOOOOOOOOOOOOOOOOOOOOOOOOOOOOOOO"
};
