/* XPM */
static char *_6200c3de30e425f9c16cff1df2fe7d33rRZ5aUPaFyaamc7[] = {
/* columns rows colors chars-per-pixel */
"64 64 18 1 ",
"  c #050509",
". c #1F0F1A",
"X c #361913",
"o c #191728",
"O c #1A1828",
"+ c #1B192D",
"@ c #281522",
"# c #26312E",
"$ c #222034",
"% c #3F2135",
"& c #3A2734",
"* c #323C39",
"= c #48251F",
"- c #45283C",
"; c #663931",
": c #59374F",
"> c #595652",
", c #847E87",
/* pixels */
"$$$$$$:$$:$$$$$$$$$$$$::----$$$$$$$$$$$$$$$$$$$$$$$::::-----$$$$",
"$$$::::----$$$$$::$$$-$--$$$$$::$$$$$:::-----$$$$:::--------**$$",
"$::::------%$$:::::::$$$$$::------$$:---------$$::-----------**$",
"$::-------%%$:::---:::--::--------$------------$$-------------*$",
"$------%-**$$:--------%$------%%**$$$$-----%%--%$$--------%%%%%$",
"------$%**$$::------%%$$$-----**$$$$$$$-$$$%%%%%$$$---$$$%%$%%$$",
"--$$$$$$$$$$:-----%**$$$$$$%%%$$$$:::::--*$$$$$$$$$$$$$$%%$$$$$$",
"$$$::::::$$$----%%**$$$$----$$$$$:::::---**$$$$$$:::$$$::--**$$$",
"$$::::----*$---%%$$$$----------$$$-------**$$$::-$-$$$:------**$",
"$::-------*$$-%%%$-------:::-@O+++%------*$$::----$$::---------*",
"$:-------**$--%%$$$$$$-----@@+oOOOOO.@%---$----**-$$-----------$",
"----------%$-$$$$:::$$$$--@+OO OO OOO##-%%$----*---$$-------%%$$",
"----------%$$-:::----**$$$+ O=X==X== O@@%$--------$$-----%%%%$$$",
"---------%%$$-------****@++X==X==X=*X#O+$-----%%%$$$$$$$$$$%%$$$",
"$$---%%%%%%$$-----------#O=X==X==X==**O+$$---%%$$$:::::--$$$$::$",
"$:$--%%%%%%$*-----------OO=X==X==X==X=OO+$%%%%$$$:::-------$::--",
"--$$$$%$$$$$*-----------OO=X==X==X==X==O+$$$$$$:::--------$$:---",
"-$$--%%-$$$$$$$$$$%%%%%@O==X==X==X==X== +$$**$-::------%%$$-----",
"$-----------$$$$$$$$$$$O ==X==X==X==X== @:$*$--------%%%$$$---%%",
"--::::-------$:::::$$$$OX==X==X==X==X== @:-$$-------%%%$$----%*$",
"---:-----%**$:::::-----@X==X==X==X==X== #--$$-----%%**$$$$-%%**$",
"--------%**$$:--------*@X==X=*X==X==X== #*--$$$%%%**$$$$$$$$$$$$",
"$------%%*$$$---------*#X==X**X==X==X>, @--%$$$$$$$$:::::---$$$:",
"$$--%%%**$$$----------%#X==X==X==X==X>> @%%%$::-$$::::-------$$-",
"$$$$$$$$$$$$-------%%%%@X==X==X==X==X== @$$$$---$:::----------$-",
"$$:::::::*$$$$$$--%%$$$OX==X==X=*X==X== @:::-$-$--------%%%%%$$$",
"::$$$$--**$::::$$$$$$$-@X==X==X*=X==X== @-----$$--------%%*$$$$:",
"-----$$$$$::--::-----*-@X==X==X==X==X== @------$$------%%*$$-:::",
"--------*$----------*--@X==X==X==X==X== @-----%%$-----%%**$-::--",
"-------**$------------%@*==X==X==X==X== @----%%$-----%%*$$$-----",
"%%%%%%***$---------%%%##*==X**X==X**X== @--%%%$$--%%%%$$$-----%%",
"$$$$$$$$$$$$$$$$$$$$$$$$$$$$$$$$$$$$$$$$$$$$$$$$$$$$$$$$$$$$$$$$",
"&&&&&&&&&&&&&&&&&&&&&&&&&&&&&&&&&&&&&&&&&&&&&&&&&&&&&&&&&&&&&&&&",
"&&&&&&&&&&&&&&&&&&&&&&&&&&&&&&&&&&&&&&&&&&&&&&&&&&&&&&&&&&&&&&&&",
"&&&&&&&&&&&&&&&&&&&&&&&&&&&&&&&&&&&&&&&&&&&&&&&&&&&&&&&&&&&&&&&&",
"&&&&&&&&&&&&-----&&&&&&&&&&&&&&&&&&&&&&&&&&&&&&&&&&&&&&&&&&&&&&&",
"&&&&&------------&&&&&&&&&&&&&&&&&&&&&&&&&&&&&&&&&&--------&&&&&",
"&&&--;-&&&&&&&&&&&&&&&&&&&&&&&&&&&&&&&&&&&&&&&&--;---&&&&&&&&&&&",
"&&&&&&&&&&&&&&&&&&&&&&&&&&&&&&&&&&&&&&&--&--;---&&&&&&&&&&&&&&&&",
"&&&&&&&&&&&&&&&&&&&&&&&&&&&&&&&&&;---;----;&&&&&&&&&&&&&&&&&&&&&",
"&&&&&&&&&&&&&&&&&&&&&&&&&&-----------;&&&&&&&&&&&&&&&&&&&&&&&&&&",
"&&&&&&&&&&&&&&&&&&&;;---;---------;&&&&&&&&&&&&&&&&&&&&&&&&&---;",
"&&&&&&&&&&&&--------;----------&&&&&&&&&&&&&&&&&&&&&&&----;-&&&&",
"&&&&&&---------------;--;-&&&&&&&&&&&&&&&&&&&&&&&&&&&--;-&&&&&&&",
"&&&&&&&&&&&&&&&&&&&&&&&&&&&&&&&&&&&&&&&&&&&&&&&&&&;--;&&&&&&&&&&",
"&&&&&&&&&&&&&&&&&&&&&&&&&&&&&&&&&&&&&&&&&&&&&&&;---&&&&&&&&&&&&&",
"&&&&&&&&&&&&&&&&&&&&&&&&&&&&&&&&&&&&&&&&&&&&&---&&&&&&&&&&&&&&&&",
"&&&&&&&&&&&&&&&&&&&&&&&&&&&&&&&&&&&&&&&&&&&&&&&&&&&&&&&&&&&&&&&&",
"&&&&&&&&&&&&&&&&&&&&&&&&&&&&&&&&&&&&&&&&&&&&&&&&&&&&&&&&&&&&&&&&",
"&&&&&&&&&&&&&&---;-----&&&&&&&&&&&&&&&&&&&&&&&&&&&&&&&------&&&&",
"&&&&&---;---;-------&&&&&&&&&&&&&&&&&&&&&&&&&&-------------&&&&&",
"-;----;--&&&&&&&&&&&&&&&&&&&&&&&&&&&&&&--;;;-----&&&&&&&&&&&&&&&",
"&&&&&&&&&&&&&&&&&&&&&&&&&&&&&&&&&&&&--------&&&&&&&&&&&&&&&&&&&&",
"&&&&&&&&&&&&&&&&&&&&&&&&&&&&&-----;----&&&&&&&&&&&&&&&&&&&&&&&&&",
"&&&&&&&&&&&&&&&&&&&&&&&&&---------&&&&&&&&&&&&&&&&&&&&&&&&&&&&&&",
"&&&&&&&&&&&&&&&&&&&&---------&&&&&&&&&&&&&&&&&&&&&&&&&&&&&&&&&&&",
"&&&&&&&&&&&&&&&&&&&-----&&&&&&&&&&&&&&&&&&&&&&&&&&&&&&&&&&&&&&&&",
"&&&&&&&&&&&&&&&&&&&&&&&&&&&&&&&&&&&&&&&&&&&&&&&&&&&&&&&>>&&&&&&&",
"&&&&&&&&&&&&&&&&&&&&&&&&&&&&&&&&&&&&&&&&&&&&&&&&&&&&&&>>>>&&&&&&",
"&&&&&&&&&&&&&&&&&&&&&&&&&&&&&&&&&&&&&&&&&&&&&&&&&&&&&&&&&&&&&&&&",
"&&&&&&&&&&&&&&&&&&&&&&&&&&&&&&&&&&&&&&&&&&&&&&&&&&&&&&&&&&&&&&&&",
"&&&&&&&&&&&&&&&&&&&&&&&&&&&&&&&&&&&&&&&&&&&&&&&&&&&&&&&&&&&&&&&&",
"&&&&&&&&&&&&&&&&&&&&&&&&&&&&&&&&&&&&&&&&&&&&&&&&&&&&&&&&&&&&&&&&",
"&&&&&&&&&&&&&&&&&&&&&&&&&&&&&&&&&&&&&&&&&&&&&&&&&&&&&&&&&&&&&&&&"
};
