/* XPM */
static char *bc65fa6228ef41f0badb55eae733d6c70HYMHdH9JqX5BVkQ[] = {
/* columns rows colors chars-per-pixel */
"64 64 8 1 ",
"  c black",
". c #3F3F74",
"X c #1F4159",
"o c #306082",
"O c #316B94",
"+ c #5B6EE1",
"@ c #639BFF",
"# c #5FCDE4",
/* pixels */
"oo+OOOOOo+OOOOOOOooo++OOOoooo+OOOOoooo+OOOOOooo+OOOooo+OOoooo+OO",
"oX+OOoooX+OOOOoooooX++OOooooX+OooooooX+OooooooX+OooooX+OooooX+Oo",
"XX+oooXXX+ooooooXXXX++ooooXXX+oooXXXXX+oooooXXX+oooXXX+oooXXX+oo",
"++++++++++++++++++++++++++++++++++++++++++++++++++++++++++++++++",
"ooo+OOOOooo++OOOOoooo+OOOOOoo.o++OOOOoooo+OOOooooo+OOOoooo++OOOo",
"ooX+OoooooX++OooooooX+OOooooo..++OooooooX+OooooooX+OoooooX++Oooo",
"XXX+oooXXXX++oooooXXX+oooXXXXX..+ooooXXXX+oooXXXXX+ooooXXX++oooo",
"++++++++++++++++++++..+++++++++@@+++++++++++++++++++++++++++++++",
"oo+OOOOOo+OOOOOOOooo+....oooo+OO##oooo+OOOOOooo+OOOooo+OOoooo+OO",
"oX+OOoooX+OOOOoooooX++.....oX+Oo##@ooX+OooooooX+OooooX+OooooX+Oo",
"XX+oooXXX+ooooo####X++oo..@@X+ooo@#+XX+oooooXXX+oooXXX+oooXXX+oo",
"++++++++++++++++++###+++...@@+++++#+.+++##.+++++++++++++++++++++",
"oo+OOOOOo+OOOOOOOooo###OO.++@@....#+..+###..ooo+OOOooo+OOoooo+OO",
"oX+OOoooX+OOOOoooooX++###o.+++@...#++..O##.@@oX+OooooX+OooooX+Oo",
"XX+oooXXX+ooooooXXXX++o####.++@@...#+@.o###.@XX+oooXXX+oooXXX+oo",
"+++++++++++++++++++++++..##..+@@++.#++..+##.@+++++++++++++++++++",
"ooo+OOOOooo++OOOOoooo+.....##@@@+++.#@@.o#O#@ooooo+OOOoooo++OOOo",
"ooX+OoooooX++OooooooX.....++++@@@++##@...+##@@oooX+OoooooX++Oooo",
"XXX+oooXXXX++oooooXXX.+++++++++@@@++##+...##@@XXXX+ooooXXX++oooo",
"+++++++++++++++++++..++@@@@@@@@@@@++##+...##@@++++++++++++++++++",
"oo+OOOOOo+OOOOOOO..+++.+++@@@@@#@@@@@#+...O##@o+OOOooo+OOoooo+OO",
"oX+OOoooX+OOOOooo..#.#.++@@@@@@##@@@@##....##@X+OooooX+OooooX+Oo",
"XX+oooXXX+oooooo#######+@@##@@@###@##@++...#.@X+oooXXX+oooXXX+oo",
"+++++++++++++++#.##..++@@####@@@##@##@@++..#.@++++++++++++++++++",
"ooo+OOOOooo++O#.#o...++@@@########@##@@++.++#@oooo+OOOoooo++OOOo",
"ooX+OoooooX++###o....+@@@@@##########@@@+.++#@oooX+OoooooX++Oooo",
"XXX+oooXXXX+###oo...++@@@@###########@@@++@+#XX@XX+ooooXXX++oooo",
"+++++++++++##.+++...+@@@@############@@@@+@+#+@@++++++++++++++++",
"oo+OOOOOo+O#..OOO...+@@@#############@@@@#@.#o@@OOOooo+OOoooo+OO",
"oX+OOoooX+O#OOoo..@@@@@###############@###+..o@.OooooX+OooooX+Oo",
"XX+oooXXX+#ooooo..@@@@@##################@+..X@.oooXXX+oooXXX+oo",
"+++++++++#+++++..@@@@@########  ########@@+..+@.++++++++++++++++",
"ooo+OOOOooo++OO.@+@+@@#######    #######@@+...@.oo+OOOoooo++OOOo",
"ooX+OoooooX++O..@+.+@#######  +++ #####@@@+...@.oX+OoooooX++Oooo",
"XXX+oooXXXX++o.@++.##@#@#### ++   #####@@@+.+.@XXX+ooooXXX++oooo",
"++++++++++++++.@+..##@@@#### ++++ ####@@@@+++@@+++++++++++++++++",
"oo+OOOOOo+OOO.@++..#@@@@####  + + ####@@@@+++@.+OOOooo+OOoooo+OO",
"oX+OOoooX+OOO.@+...#@@@@####      ####@@@@+@+..+OooooX+OooooX+Oo",
"XX+oooXXX+ooo.@...##@@@@#####    #####@@@@@@.#X+oooXXX+oooXXX+oo",
"+++++++++++++@....#+@@@#######  ######@@#@@+.#++++++++++++++++++",
"ooo+OOOOooo++@.O..#++@@##################@@.##oooo+OOOoooo++OOOo",
"ooX+OoooooX++@oo..#.+@@##################++.#ooooX+OoooooX++Oooo",
"XXX+oooXXXX+..ooo.#.+@@#################@++##XXXXX+ooooXXX++oooo",
"++++++++++++..+++.#+@@@##@#############@@+.#.+++++++++++++++++++",
"oo+OOOOOo+OOO.OOO.##@@@##@@##########@@@++##ooo+OOOooo+OOoooo+OO",
"oX+OOoooX+OO...oo.#+@@@@@@@##########@@@+.#.ooX+OooooX+OooooX+Oo",
"XX+oooXXX+oo...oXX#+@++@@@@#########@@@++#.oXXX+oooXXX+oooXXX+oo",
"++++++++++++...+++#+@++@@@@########@@@@+#..+.+++++++++++++++++++",
"ooo+OOOOooo++O.OOo#++.++@@@@#######@@@++#..O..oooo+OOOoooo++OOOo",
"ooX+OoooooX++Ooooo#++..++@#@@###@@@@@++#..O...oooX+OoooooX++Oooo",
"XXX+oooXXXX++ooooo#++..++@#@@#@##@@@++#......XXXXX+ooooXXX++oooo",
"++++++++++++++++++.++...++#@@@@#@@@++#.++...++++++++++++++++++++",
"ooo+OOOOooo++OOOOo..+....+##@@@@@@@+#.++...OO@@ooo+OOOoooo++OOOo",
"ooX+OoooooX++Ooooo..+.....+#+@@@@@@+++...+@@@ooooX+OoooooX++Oooo",
"XXX+oooXXXX++oooooX..+.....##+++@@@@@@@@@@oooXXXXX+ooooXXX++oooo",
"+++++++++++++++++++..++....##+++.......+++++++++++++++++++++++++",
"oo+OOOOOo+OOOOOOOooo..OO....##.......o+OOOOOooo+OOOooo+OOoooo+OO",
"oX+OOoooX+OOOOoooooX..OOoo..####...ooX+OooooooX+OooooX+OooooX+Oo",
"XX+oooXXX+ooooooXXXX...oooXX..###XXXXX+oooooXXX+oooXXX+oooXXX+oo",
"+++++++++++++++++++++..++++++++#++++++++++++++++++++++++++++++++",
"ooo+OOOOooo++OOOOoooo+..OOOoooo++OOOOoooo+OOOooooo+OOOoooo++OOOo",
"ooX+OoooooX++OooooooX+OOooooooX++OooooooX+OooooooX+OoooooX++Oooo",
"XXX+oooXXXX++oooooXXX+oooXXXXXX++ooooXXXX+oooXXXXX+ooooXXX++oooo",
"++++++++++++++++++++++++++++++++++++++++++++++++++++++++++++++++"
};
