/* XPM */
static char *aa22e7b96c6d483bf5ac8f625b6028e8s9etml5DucmVmv8x[] = {
/* columns rows colors chars-per-pixel */
"64 64 14 1 ",
"  c black",
". c #222034",
"X c #1F4159",
"o c #68646A",
"O c #306082",
"+ c #316B94",
"@ c #5B6EE1",
"# c #847E87",
"$ c #7E8D95",
"% c #639BFF",
"& c #5FCDE4",
"* c #9C999E",
"= c #9BADB7",
"- c #AEC0CA",
/* pixels */
"OO@+++++O@+++++++OOO@@+++OOOO@++++OOOO@+++++OOO@+++OOO@++OOOO@++",
"OX@++OOOX@++++OOOOOX@@++OOOOX@+OOOOOOX@+OOOOOOX@+OOOOX@+OOOOX@+O",
"XX@OOOXXX@OOOOOOXXXX@@OOOOXXX@OOOXXXXX@OOOOOXXX@OOOXXX@OOOXXX@OO",
"@@@@@@@@@@@@@@@@@@@@@@@@@@@@@@@@@@@@@@@@@@@@@@@@@@@@@@@@@@@@@@@@",
"OOO@++++OOO@@++++OOOO@+++++OOOO@@++++OOOO@+++OOOOO@+++OOOO@@+++O",
"OOX@+OOOOOX@@+OOOOOOX@++OOOOOOX@@+OOOOOOX@+OOOOOOX@+OOOOOX@@+OOO",
"XXX@OOOXXXX@@OOOOOXXX@OOOXXXXXX@=OOOOXXXX@OOO=XXXX@OOOOXXX@@OOOO",
"@@@@@@@@@@@@@@@@@@@@@@@@@@@@@@@@@=@@@====@@@$@@@@@@@@@@@@@@@@@@@",
"OO@+++++O@+++++++OOO@@+++OOOO@++++=O=O@++=+$OOO@+++OOO@++OOOO@++",
"OX@++OOOX@++++OOOOOX@@++OOOOX@+OOOO=OX@+OO$OOOX@+OOOOX@+OOOOX@+O",
"XX@OOOXXX@OOOOOOXXXX@@OOOOXXX@OOOX=X=X@OO$O=XXX@OOOXXX@OOOXXX@OO",
"@@@@@@@@@@@@@@@@@@@@@@@@@@@@@@@@@@=@@=@@$@@=@@@@@@@@@@@@@@@@@@@@",
"OO@+++++O@+++++++OOO@@+++OOOO@++++=OOO-$+++$OOO@+++OOO@++OOOO@++",
"OX@++OOOX@++++OOOOOX@-$+OOOOX@+OOOO=O-=$oO$OOOX@+OOOOX@+OOOOX@+O",
"XX@OOOXXX@OOOOOOXXXX--$oOOXXX@OOOXXX-==$$oOOXXX@OOOXXX@OOOXXX@OO",
"@@@@@@@@@@@@@@@@@@----------=================ooo@@@@@@@@@@@@@@@@",
"OOO@++++OOO@@++++O---========================oooOO@+++OOOO@@+++O",
"OOX@+OOOOOX@@+OOOO--========================$oooOX@+OOOOOX@@+OOO",
"XXX@OOOXXXX@@OOOOO-==####################o==$oooXX@OOOOXXX@@OOOO",
"@@@@@@@@@@@@@@@@@@-==#ooo       @       #o==$ooo@@@@@@@@@@@@@@@@",
"OO@+++++O@++++++---==#o @        @      #o==$ooo+++OOO@++OOOO@++",
"OX@++OOOX@++++OOO-===#o  @        %     #o==$ooo+OOOOX@+OOOOX@+O",
"XX@OOOXXX@OOOOOOX-===#o   %        %    #o==$oooOOOXXX@OOOXXX@OO",
"@@@@@@@@@@@@@@@@@-===#o    &        &   #o==$ooo@@@@@@@@@@@@@@@@",
"OOO@++++OOO@@++++-===#o     &        %  #o==$oooOO@+++OOOO@@+++O",
"OOX@+OOOOOX@@+OOO-===#o@     &        @ #o==$oooOX@+OOOOOX@@+OOO",
"XXX@OOOXXXX@@OOOO-===#o &     %        @#o==$oooXX@OOOOXXX@@OOOO",
"@@@@@@@@@@@@@@@@@-===#o  %     @        #o==$ooo@@@@@@@@@@@@@@@@",
"OO@+++++O@+++++++O-==#o   @     @       #o==$ooo+++OOO@++OOOO@++",
"OX@++OOOX@++++OOOO-==####################o==$ooo+OOOOX@+OOOOX@+O",
"XX@OOOXXX@OOOOOOXX-=========================$ooooOOXXX@OOOXXX@OO",
"@@@@@@@@@@@@@@@@@@-===================*==**#o$$ooo@@@@@@@@@@@@@@",
"OOO@++++OOO@@++++O-===================o=**..#o$ooo@+++OOOO@@+++O",
"OOX@+OOOOOX@@+OOOO-=**####o===#=========*..#.o$ooo@+OOOOOX@@+OOO",
"XXX@OOOXXXX@@OOOOOX$==================o=#....o$ooo@OOOOXXX@@OOOO",
"@@@@@@@@@@@@@@@@@@@@$=**###o=**#o=====o=##..#o$ooo@@@@@@@@@@@@@@",
"OO@+++++O@+++++++OOO@-===================###o$ooo++OOO@++OOOO@++",
"OX@++OOOX@++++OOOOOX@-===*************o=#=$$$ooo+OOOOX@+OOOOX@+O",
"XX@OOOXXX@OOOOOOXXXX@-===**..........#o==#$oooo@OOOXXX@OOOXXX@OO",
"@@@@@@@@@@@@@@@@@@@@@-====*##########o====$ooo@@@@@@@@@@@@@@@@@@",
"OOO@++++OOO@@++++OOOO-====##........#o====$oooOOOO@+++OOOO@@+++O",
"OOX@+OOOOOX@@+OOOOOOX-====###########o====$oooOOOX@+OOOOOX@@+OOO",
"XXX@OOOXXXX@@OOOOOXXX-====###......##o====$oooXXXX@OOOOXXX@@OOOO",
"@@@@@@@@@@@@@@@@@@@@@-=====#########o=====$ooo@@@@@@@@@@@@@@@@@@",
"OO@+++++O@+++++++OOO@-=====###....##o=====$oooO@+++OOO@++OOOO@++",
"OX@++OOOX@++++OOOOOX@-=====#########o=====$oooX@+OOOOX@+OOOOX@+O",
"XX@OOOXXX@OOOOOOXXXX@-=====##......#o====$$ooXX@OOOXXX@OOOXXX@OO",
"@@@@@@@@@@@@@@@@@@@@@@$=====########=====$ooo@@@@@@@@@@@@@@@@@@@",
"OOO@++++OOO@@++++OOOO@+$====oooooooo====$ooo+OOOOO@+++OOOO@@+++O",
"OOX@+OOOOOX@@+OOOOOOX@+O$$$============$oooOOOOOOX@+OOOOOX@@+OOO",
"XXX@OOOXXXX@@OOOOOXXX@+OOO$$$$$$$$$$$$$ooo@OOXXXXX@OOOOXXX@@OOOO",
"@@@@@@@@@@@@@@@@@@@@@@@@@@@@@@@@@@@@@@@@@@@@@@@@@@@@@@@@@@@@@@@@",
"OOO@++++OOO@@++++OOOO@+++++OOOO@@++++OOOO@+++OOOOO@+++OOOO@@+++O",
"OOX@+OOOOOX@@+OOOOOOX@++OOOOOOX@@+OOOOOOX@+OOOOOOX@+OOOOOX@@+OOO",
"XXX@OOOXXXX@@OOOOOXXX@OOOXXXXXX@@OOOOXXXX@OOOXXXXX@OOOOXXX@@OOOO",
"@@@@@@@@@@@@@@@@@@@@@@@@@@@@@@@@@@@@@@@@@@@@@@@@@@@@@@@@@@@@@@@@",
"OO@+++++O@+++++++OOO@@+++OOOO@++++OOOO@+++++OOO@+++OOO@++OOOO@++",
"OX@++OOOX@++++OOOOOX@@++OOOOX@+OOOOOOX@+OOOOOOX@+OOOOX@+OOOOX@+O",
"XX@OOOXXX@OOOOOOXXXX@@OOOOXXX@OOOXXXXX@OOOOOXXX@OOOXXX@OOOXXX@OO",
"@@@@@@@@@@@@@@@@@@@@@@@@@@@@@@@@@@@@@@@@@@@@@@@@@@@@@@@@@@@@@@@@",
"OOO@++++OOO@@++++OOOO@+++++OOOO@@++++OOOO@+++OOOOO@+++OOOO@@+++O",
"OOX@+OOOOOX@@+OOOOOOX@++OOOOOOX@@+OOOOOOX@+OOOOOOX@+OOOOOX@@+OOO",
"XXX@OOOXXXX@@OOOOOXXX@OOOXXXXXX@@OOOOXXXX@OOOXXXXX@OOOOXXX@@OOOO",
"@@@@@@@@@@@@@@@@@@@@@@@@@@@@@@@@@@@@@@@@@@@@@@@@@@@@@@@@@@@@@@@@"
};
