/* XPM */
static char *ef857955f4bb4959ecd2ee88d7058336WsmirVuW4xKVg79d[] = {
/* columns rows colors chars-per-pixel */
"64 64 39 1 ",
"  c #4B2459",
". c #602D74",
"X c #1F4159",
"o c #626162",
"O c #982828",
"+ c #AC3232",
"@ c #D95763",
"# c #306082",
"$ c #316B94",
"% c #76428A",
"& c #5B6EE1",
"* c #847E87",
"= c #8A4FA1",
"- c #D77BBA",
"; c #3C8098",
": c #3F879F",
"> c #4591AE",
", c #4797B3",
"< c #4597B8",
"1 c #489CBC",
"2 c #4BA3BA",
"3 c #5391D6",
"4 c #5797DF",
"5 c #50ACC6",
"6 c #51AFCC",
"7 c #579AE2",
"8 c #5C99E2",
"9 c #5D9EE2",
"0 c #5C97EE",
"q c #5D99F1",
"w c #609AF3",
"e c #619AF9",
"r c #639BFF",
"t c #5DB0E3",
"y c #5FCDE4",
"u c #969398",
"i c #9BADB7",
"p c #9180C2",
"a c #918EE4",
/* pixels */
"##&$$$$$#&$$$$$$$###&&$$$####&$$$$####&$$$$$###&$$$###&$$####&$$",
"#X&$$###X&$$$$#####X&&$$####X&$######X&$######X&$####X&$####X&$#",
"XX&###XXX&######XXXX&&####XXX&###XXXXX&#####XXX&###XXX&###XXX&##",
"&&&&&&&&&&&&&&&&&&&&&&&&&&&&&8888888888&&&&&&&&&&&&&&&&&&&&&&&&&",
"###&$$$$###&&$$$$####&$$$$$#>5&tt666<>>>#&$$$#####&$$$####&&$$$#",
"##X&$#####X&&$######X&$$###>>>;&t655555>;&$######X&$#####X&&$###",
"XXX&###XXXX&&#####XXX&###X;;;;;8&>5552;&;8###XXXXX&####XXX&&####",
"&&&&&&&&&&&&&&&&&&&&&&&&&8888---@r------r88&&&&&&&&&&&&&&&&&&&&&",
"##&$$$$$#&$$$$$$$###&&$$<>>---@@--r-@----r-<###&$$$###&$$####&$$",
"#X&$$###X&$$$$#####X&&$$>>>-@-@-@@-y------r>##X&$####X&$####X&$#",
"XX&###XXX&######XXXX&&#>>>-@--@----@y----@-r;XX&###XXX&###XXX&##",
"&&&&&&&&&&&&&&&&&&&&&&8888-@-@----@--y-@---8&8&&&&&&&&&&&&&&&&&&",
"##&$$$$$#&$$$$$$$###&&r<&>@--@---@--@@y----<>r#&$$$###&$$####&$$",
"#X&$$###X&$$$$#####X&&rrr&rrrrrrrrrrrrrrrrrrrrX&$####X&$####X&$#",
"XX&###XXX&######XXXX&&4444yaapaaaaapaapprpaq00X&###XXX&###XXX&##",
"&&&&&&&&&&&&&&&&&&&&&wwwwwayapaapaaappaaa&aeeee&&&&&&&&&&&&&&&&&",
"###&$$$$###&&$$$$####w77777ayapaapppaaaaae&qqqq###&$$$####&&$$$#",
"##X&$#####X&&$######Xw7744444&;pppppppqq0eq&qqq##X&$#####X&&$###",
"XXX&###XXXX&&#####XXXw44433333&wppppq0000eqqq00XXX&####XXX&&####",
"&&&&&&&&&&&&&&&&&&&&&wwwwwwwwwwwwwpeeeeeeeeeeee&&&&&&&&&&&&&&&&&",
"##&$$$$$#&$$$$$$$###&=====================%%.   $$$###&$$####&$$",
"#X&$$###X&$$$$#####X==============%%%%%%%%%%..    ###X&$####X&$#",
"XX&###XXX&######XX=================%%%%%%%%%.....  XXX&###XXX&##",
"&&&&&&&&&&&&&&&&&==  =============  %%%%%%%%%%%%.    &&&&&&&&&&&",
"###&$$$$###&&$$$==  ===============  =%%%%%%%%%%..   $####&&$$$#",
"##X&$#####X&&$##== ================= ====%%%%% % %..  ###X&&$###",
"XXX&###XXXX&&###=====9,,,::::::99,=====%%%%%%%%%%%..   XXX&&####",
"&&&&&&&&&&&&&&&&=====9&99999r9OO99=====%%%%%%% % %%..  &&&&&&&&&",
"##&$$$$$#&$$$$$$=====91r1O+,+y+111=====%%%%%%%%%%%%..  $$####&$$",
"#X&$$###X&$$$$##=====911r+++O+y,,,=====%%%%%%% % %%%.  $####X&$#",
"XX&###XXX&######=====9,,,y+OOOOy,:=====%%%%%%%%%%%%%.  ###XXX&##",
"&&&&&&&&&&&&&&&&=====99999yO+++Or9======%%%%%% % %%%.  &&&&&&&&&",
"###&$$$$###&&$$$=====91111Oy+++O9&======%%%%%%%%%%%..  ###&&$$$#",
"##X&$#####X&&$##=====911,,O+rOO+91======%%%%%.......   ##X&&$###",
"XXX&###XXXX&&###=====9&,,:+++r++9,======%%%.......     XXX&&####",
"&&&&&&&&&&&&&&&&=====99y99++++&+99=====%%%%.           &&&&&&&&&",
"##&$$$$$#&$$iiii=====911y,,++++&11=====%uuuuu    ooooo $$####&$$",
"#X&$$###X&$iiiii=====911,r,,:91,,,=====%uuuuuu   oooooo$####X&$#",
"XX&###XXX&iii***=====9,,,,&::9,,,:=====%uuiiiu*    ooooo##XXX&##",
"&&&&&&&&&iiu**&&== ================= ==%%%%iiu*o    oooo&&&&&&&&",
"###&$$$$#iiu*$$$==  ===============  =%%%%%%iu*o    *ooo##&&$$$#",
"##X&$####iiu*$###==  =============  %%%%%%%%iu*o    **oo#X&&$###",
"XXX&###XXiiu*#####=================%%%%%%%%%iu*o    **ooXX&&####",
"&&&&&&&&&iiu*&&&&&&&==========%%%%%%%%%%%%%%iu*o  &&**oo&&&&&&&&",
"##&$$$$$iiiu*$$$$###oo%%%%%%%%%%%$####&$$$$$iu*oo$$#**oooo###&$$",
"#X&$$##iiii*$$#####Xooooooo#X&$######X&$####iu****###*ooooo#X&$#",
"XX&###iiiiu#####XXXXooooooXXX&###XXXXX&#####Xuuuuu*XX****ooXX&##",
"&&&&&&iiiu&&&&&&&&&&oooooo&&&&&&&&&&&&&&&&&&&&iiiu*o&&****oo&&&&",
"###&$$iii##&&$$$$###*ooo$$$####&&$$$$####&$$$###iu*o$$##**oo$$$#",
"##X&$#iii#X&&$######**oo######X&&$######X&$#####iu*o####**oo$###",
"XXX&##iiiXX&&#####XX***o#XXXXXX&&####XXXX&###XXXiu*o###X**oo####",
"&&&&&&iii&&&&&&&&&&&***o&&&&&&&&&&&&&&&&&&&&&&&&iu*o&&&&**oo&&&&",
"###&$$iii##&&$$$$###****$$$####&&$$$$####&$$$###iu*o$$##**oo$$$#",
"##X&$#iii#X&&$######****######X&&$######X&$#####iu*o####**oo$###",
"XXX&##iiiXX&&#####XX****#XXXXXX&&####XXXX&###XXXiuoo###X*ooo####",
"&&&&&&iu*&&&&&&&&&&&****&&&&&&&&&&&&&&&&&&&&&&&&iooo&&&&oooo&&&&",
"##&$$$$$#&$$$$$$$###&&$$$####&$$$$####&$$$$$###&$$$###&$$####&$$",
"#X&$$###X&$$$$#####X&&$$####X&$######X&$######X&$####X&$####X&$#",
"XX&###XXX&######XXXX&&####XXX&###XXXXX&#####XXX&###XXX&###XXX&##",
"&&&&&&&&&&&&&&&&&&&&&&&&&&&&&&&&&&&&&&&&&&&&&&&&&&&&&&&&&&&&&&&&",
"###&$$$$###&&$$$$####&$$$$$####&&$$$$####&$$$#####&$$$####&&$$$#",
"##X&$#####X&&$######X&$$######X&&$######X&$######X&$#####X&&$###",
"XXX&###XXXX&&#####XXX&###XXXXXX&&####XXXX&###XXXXX&####XXX&&####",
"&&&&&&&&&&&&&&&&&&&&&&&&&&&&&&&&&&&&&&&&&&&&&&&&&&&&&&&&&&&&&&&&"
};
