/* XPM */
static char *ad3ca019f1b844199780f565c1d723febljJAyeHiHzhNlHp[] = {
/* columns rows colors chars-per-pixel */
"64 64 3 1 ",
"  c #2F2F4C",
". c #3F3F74",
"X c #434367",
/* pixels */
"                                                                ",
" .............................................................. ",
" .............................................................. ",
" .............................................................. ",
" .............................................................. ",
" .............................................................. ",
" .....    ............................................    ..... ",
" .....    ............................................    ..... ",
" .....    ............................................    ..... ",
" .....    ............................................    ..... ",
" ......... XXXXXXXXXXXXXXXXXXXXXXXXXXXXXXXXXXXXXXXXXXX......... ",
" ......... ..........................................X......... ",
" ......... ..........................................X......... ",
" ......... ..........................................X......... ",
" ......... ..........................................X......... ",
" ......... ..........................................X......... ",
" ......... ..........................................X......... ",
" ......... ..........................................X......... ",
" ......... ..........................................X......... ",
" ......... .....  .........................  ........X......... ",
" ......... .....  .........................  ........X......... ",
" ......... ....... XXXXXXXXXXXXXXXXXXXXXXXX..........X......... ",
" ......... ....... .......................X..........X......... ",
" ......... ....... .......................X..........X......... ",
" ......... ....... .......................X..........X......... ",
" ......... ....... .......................X..........X......... ",
" ......... ....... .......................X..........X......... ",
" ......... ....... .......................X..........X......... ",
" ......... ....... .......................X..........X......... ",
" ......... ....... .......................X..........X......... ",
" ......... ....... .......................X..........X......... ",
" ......... ....... .......................X..........X......... ",
" ......... ....... .......................X..........X......... ",
" ......... ....... .......................X..........X......... ",
" ......... ....... .......................X..........X......... ",
" ......... ....... .......................X..........X......... ",
" ......... ....... .......................X..........X......... ",
" ......... ....... .......................X..........X......... ",
" ......... ....... .......................X..........X......... ",
" ......... ....... .......................X..........X......... ",
" ......... ....... .......................X..........X......... ",
" ......... ....... .......................X..........X......... ",
" ......... ....... .......................X..........X......... ",
" ......... ....... .......................X..........X......... ",
" ......... .......                         ..........X......... ",
" ......... .....  .........................  ........X......... ",
" ......... .....  .........................  ........X......... ",
" ......... ..........................................X......... ",
" ......... ..........................................X......... ",
" ......... ..........................................X......... ",
" ......... ..........................................X......... ",
" ......... ..........................................X......... ",
" ......... ..........................................X......... ",
" .........                                            ......... ",
" .....    ............................................    ..... ",
" .....    ............................................    ..... ",
" .....    ............................................    ..... ",
" .....    ............................................    ..... ",
" .............................................................. ",
" .............................................................. ",
" .............................................................. ",
" .............................................................. ",
" .............................................................. ",
"                                                                "
};
