/* XPM */
static char *e91d6aba3437400ec7601029e7b92160alsbEvydkWMP9VRl[] = {
/* columns rows colors chars-per-pixel */
"64 64 8 1 ",
"  c #222034",
". c #3F2135",
"X c #3A2734",
"o c #323C39",
"O c #45283C",
"+ c #663931",
"@ c #59374F",
"# c #595652",
/* pixels */
"      @  @            @@OOOO                       @@@@OOOOO    ",
"   @@@@OOOO     @@   O OO     @@     @@@OOOOO    @@@OOOOOOOOoo  ",
" @@@@OOOOOO.  @@@@@@@     @@OOOOOO  @OOOOOOOOO  @@OOOOOOOOOOOoo ",
" @@OOOOOOO.. @@@OOO@@@OO@@OOOOOOOO OOOOOOOOOOOO  OOOOOOOOOOOOOo ",
" OOOOOO.Ooo  @OOOOOOOO. OOOOOO..oo    OOOOO..OO.  OOOOOOOO..... ",
"OOOOOO .oo  @@OOOOOO..   OOOOOoo       O   .....   OOO   .. ..  ",
"OO          @OOOOO.oo      ...    @@@@@OOo              ..      ",
"   @@@@@@   OOOO..oo    OOOO     @@@@@OOOoo      @@@   @@OOoo   ",
"  @@@@OOOOo OOO..    OOOOOOOOOO   OOOOOOOoo   @@O O   @OOOOOOoo ",
" @@OOOOOOOo  O... OOOOOOO@@@OOOO  OOOOOOOo  @@OOOO  @@OOOOOOOOOo",
" @OOOOOOOoo OO..      OOOOOOOOOOO  OOOOOOO OOOOooO  OOOOOOOOOOO ",
"OOOOOOOOOO. O    @@@    OOOOOOOOOO. OOOO.. OOOOoOOO  OOOOOOO..  ",
"OOOOOOOOOO.  O@@@OOOOoo    OOOOOOO..OO... OOOOOOOO  OOOOO....   ",
"OOOOOOOOO..  OOOOOOOoooooO   ....... ... OOOOO...          ..   ",
"  OOO......  OOOOOOOOOOOOOO.   .oo.       OOO..   @@@@@OO    @@ ",
" @ OO...... oOOOOOOOOOOOOOO.ooo       @@O ....   @@@OOOOOOO @@OO",
"OO    .     oOOOOOOOOOOOOO..o        @OOO      @@@OOOOOOOO  @OOO",
"O  OO..O          .........  @@@@OOO       oo O@@OOOOOO..  OOOOO",
" OOOOOOOOOOO            .. @@@OOOOO     O@ o OOOOOOOO...   OOO..",
"OO@@@@OOOOOOO @@@@@        @OOOOO..  O@@@@O  OOOOOOO...  OOOO.o ",
"OOO@OOOOO.oo @@@@@OOOOOo  OOOOOOO.  O@@OOOO  OOOOO..oo    O..oo ",
"OOOOOOOO.oo  @OOOOOOOOoo  OOOOOO.   OOOOooOO   ...oo            ",
" OOOOOO..o   OOOOOOOOOoO  OOO...o   OOOOOOO.        @@@@@OOO   @",
"  OO...oo   OOOOOOOOOO..       oo  OOO...... @@O  @@@@OOOOOOO  O",
"            OOOOOOO......  @@       OO.      OOO @@@OOOOOOOOOO O",
"  @@@@@@@o      OO..   .O @@@@O  OOO    @@@@O O OOOOOOOO.....   ",
"@@    OOoo @@@@       OO  @OOOOOOOOo   @@OOOOO  OOOOOOOO..o    @",
"OOOOO     @@OO@@OOOOOoOO   OOOOOOOOo  OOOOOOOOO  OOOOOO..o  O@@@",
"OOOOOOOOo OOOOOOOOOOoOO.. OOOOOOOOO.   OOOOOOO.. OOOOO..oo O@@OO",
"OOOOOOOoo OOOOOOOOOOOO.oo OOOOOOOOO..   OOOOO.. OOOOO..o   OOOOO",
"......ooo OOOOOOOOO...oo  OOOOOO....oo   OO...  OO....   OOOOO..",
"                                                                ",
"XXXXXXXXXXXXXXXXXXXXXXXXXXXXXXXXXXXXXXXXXXXXXXXXXXXXXXXXXXXXXXXX",
"XXXXXXXXXXXXXXXXXXXXXXXXXXXXXXXXXXXXXXXXXXXXXXXXXXXXXXXXXXXXXXXX",
"XXXXXXXXXXXXXXXXXXXXXXXXXXXXXXXXXXXXXXXXXXXXXXXXXXXXXXXXXXXXXXXX",
"XXXXXXXXXXXXOOOOOXXXXXXXXXXXXXXXXXXXXXXXXXXXXXXXXXXXXXXXXXXXXXXX",
"XXXXXOOOOOOOOOOOOXXXXXXXXXXXXXXXXXXXXXXXXXXXXXXXXXXOOOOOOOOXXXXX",
"XXXOO+OXXXXXXXXXXXXXXXXXXXXXXXXXXXXXXXXXXXXXXXXOO+OOOXXXXXXXXXXX",
"XXXXXXXXXXXXXXXXXXXXXXXXXXXXXXXXXXXXXXXOOXOO+OOOXXXXXXXXXXXXXXXX",
"XXXXXXXXXXXXXXXXXXXXXXXXXXXXXXXXX+OOO+OOOO+XXXXXXXXXXXXXXXXXXXXX",
"XXXXXXXXXXXXXXXXXXXXXXXXXXOOOOOOOOOOO+XXXXXXXXXXXXXXXXXXXXXXXXXX",
"XXXXXXXXXXXXXXXXXXX++OOO+OOOOOOOOO+XXXXXXXXXXXXXXXXXXXXXXXXXOOO+",
"XXXXXXXXXXXXOOOOOOOO+OOOOOOOOOOXXXXXXXXXXXXXXXXXXXXXXXOOOO+OXXXX",
"XXXXXXOOOOOOOOOOOOOOO+OO+OXXXXXXXXXXXXXXXXXXXXXXXXXXXOO+OXXXXXXX",
"XXXXXXXXXXXXXXXXXXXXXXXXXXXXXXXXXXXXXXXXXXXXXXXXXX+OO+XXXXXXXXXX",
"XXXXXXXXXXXXXXXXXXXXXXXXXXXXXXXXXXXXXXXXXXXXXXX+OOOXXXXXXXXXXXXX",
"XXXXXXXXXXXXXXXXXXXXXXXXXXXXXXXXXXXXXXXXXXXXXOOOXXXXXXXXXXXXXXXX",
"XXXXXXXXXXXXXXXXXXXXXXXXXXXXXXXXXXXXXXXXXXXXXXXXXXXXXXXXXXXXXXXX",
"XXXXXXXXXXXXXXXXXXXXXXXXXXXXXXXXXXXXXXXXXXXXXXXXXXXXXXXXXXXXXXXX",
"XXXXXXXXXXXXXXOOO+OOOOOXXXXXXXXXXXXXXXXXXXXXXXXXXXXXXXOOOOOOXXXX",
"XXXXXOOO+OOO+OOOOOOOXXXXXXXXXXXXXXXXXXXXXXXXXXOOOOOOOOOOOOOXXXXX",
"O+OOOO+OOXXXXXXXXXXXXXXXXXXXXXXXXXXXXXXOO+++OOOOOXXXXXXXXXXXXXXX",
"XXXXXXXXXXXXXXXXXXXXXXXXXXXXXXXXXXXXOOOOOOOOXXXXXXXXXXXXXXXXXXXX",
"XXXXXXXXXXXXXXXXXXXXXXXXXXXXXOOOOO+OOOOXXXXXXXXXXXXXXXXXXXXXXXXX",
"XXXXXXXXXXXXXXXXXXXXXXXXXOOOOOOOOOXXXXXXXXXXXXXXXXXXXXXXXXXXXXXX",
"XXXXXXXXXXXXXXXXXXXXOOOOOOOOOXXXXXXXXXXXXXXXXXXXXXXXXXXXXXXXXXXX",
"XXXXXXXXXXXXXXXXXXXOOOOOXXXXXXXXXXXXXXXXXXXXXXXXXXXXXXXXXXXXXXXX",
"XXXXXXXXXXXXXXXXXXXXXXXXXXXXXXXXXXXXXXXXXXXXXXXXXXXXXXX##XXXXXXX",
"XXXXXXXXXXXXXXXXXXXXXXXXXXXXXXXXXXXXXXXXXXXXXXXXXXXXXX####XXXXXX",
"XXXXXXXXXXXXXXXXXXXXXXXXXXXXXXXXXXXXXXXXXXXXXXXXXXXXXXXXXXXXXXXX",
"XXXXXXXXXXXXXXXXXXXXXXXXXXXXXXXXXXXXXXXXXXXXXXXXXXXXXXXXXXXXXXXX",
"XXXXXXXXXXXXXXXXXXXXXXXXXXXXXXXXXXXXXXXXXXXXXXXXXXXXXXXXXXXXXXXX",
"XXXXXXXXXXXXXXXXXXXXXXXXXXXXXXXXXXXXXXXXXXXXXXXXXXXXXXXXXXXXXXXX",
"XXXXXXXXXXXXXXXXXXXXXXXXXXXXXXXXXXXXXXXXXXXXXXXXXXXXXXXXXXXXXXXX"
};
